<svg width="14" height="16" viewBox="0 0 14 16" xmlns="http://www.w3.org/2000/svg">
<path d="M1.20363 4.76329V13.9953C1.20363 14.5409 1.40372 15.0534 1.75325 15.421C2.10117 15.7898 2.58536 15.9991 3.09209 15.9999H10.1816C10.6885 15.9991 11.1727 15.7898 11.5205 15.421C11.87 15.0534 12.0701 14.5409 12.0701 13.9953V4.76329C12.7649 4.57887 13.2152 3.90762 13.1222 3.19465C13.0291 2.48183 12.4218 1.94861 11.7029 1.94846H9.7844V1.48008C9.7866 1.0862 9.63086 0.707978 9.35202 0.429729C9.07319 0.151627 8.69438 -0.00323193 8.3005 -1.18018e-05H4.97323C4.57935 -0.00323193 4.20055 0.151627 3.92171 0.429729C3.64288 0.707978 3.48714 1.0862 3.48934 1.48008V1.94846H1.57087C0.851905 1.94861 0.244617 2.48183 0.151526 3.19465C0.0585816 3.90762 0.508814 4.57887 1.20363 4.76329ZM10.1816 15.2505H3.09209C2.45143 15.2505 1.95304 14.7002 1.95304 13.9953V4.79623H11.3207V13.9953C11.3207 14.7002 10.8223 15.2505 10.1816 15.2505ZM4.23875 1.48008C4.23626 1.28497 4.31296 1.09717 4.45142 0.959441C4.58974 0.821707 4.77798 0.746034 4.97323 0.7494H8.3005C8.49576 0.746034 8.68399 0.821707 8.82231 0.959441C8.96078 1.09703 9.03748 1.28497 9.03499 1.48008V1.94846H4.23875V1.48008ZM1.57087 2.69787H11.7029C12.0754 2.69787 12.3773 2.99983 12.3773 3.37234C12.3773 3.74485 12.0754 4.04681 11.7029 4.04681H1.57087C1.19836 4.04681 0.896401 3.74485 0.896401 3.37234C0.896401 2.99983 1.19836 2.69787 1.57087 2.69787Z" fill="#22242C"/>
</svg>
