<svg width="24" height="24" viewBox="0 0 24 24" xmlns="http://www.w3.org/2000/svg">
<g clip-path="url(#clip0)">
<path d="M18.7674 14.0509C18.5473 14.0509 18.3689 14.2293 18.3689 14.4494V17.9875C18.3681 18.6475 17.8334 19.1823 17.1734 19.1829H5.99241C5.33243 19.1823 4.79774 18.6475 4.79697 17.9875V7.60344C4.79774 6.94361 5.33243 6.40877 5.99241 6.40799H9.53051C9.75061 6.40799 9.92899 6.22961 9.92899 6.00951C9.92899 5.78956 9.75061 5.61102 9.53051 5.61102H5.99241C4.89254 5.61227 4.00125 6.50356 4 7.60344V17.9877C4.00125 19.0875 4.89254 19.9788 5.99241 19.9801H17.1734C18.2733 19.9788 19.1646 19.0875 19.1659 17.9877V14.4494C19.1659 14.2293 18.9875 14.0509 18.7674 14.0509Z" fill="#22242C"/>
<path d="M19.0081 4.58608C18.3078 3.88578 17.1725 3.88578 16.4722 4.58608L9.36297 11.6953C9.31425 11.744 9.27907 11.8044 9.2607 11.8707L8.32582 15.2458C8.28737 15.3842 8.32644 15.5324 8.42793 15.634C8.52958 15.7355 8.67776 15.7746 8.81614 15.7363L12.1913 14.8013C12.2576 14.7829 12.318 14.7477 12.3667 14.699L19.4757 7.58964C20.1749 6.88887 20.1749 5.75444 19.4757 5.05367L19.0081 4.58608ZM10.2312 11.9543L16.0495 6.1358L17.926 8.01225L12.1075 13.8307L10.2312 11.9543ZM9.8564 12.7064L11.3555 14.2057L9.28187 14.7802L9.8564 12.7064ZM18.9122 7.02616L18.4896 7.44877L16.613 5.57217L17.0358 5.14956C17.4248 4.76057 18.0555 4.76057 18.4445 5.14956L18.9122 5.61715C19.3006 6.00661 19.3006 6.63687 18.9122 7.02616Z" fill="#22242C"/>
</g>
<defs>
<clipPath id="clip0">
<rect width="16" height="16" fill="white" transform="translate(4 4)"/>
</clipPath>
</defs>
</svg>
