<svg width="128" height="128" viewBox="0 0 128 128" xmlns="http://www.w3.org/2000/svg">
<path d="M80 62.8905V53.5715C80.0029 53.0342 79.7959 52.5169 79.4231 52.13C79.0503 51.7431 78.5411 51.517 78.004 51.5H72.25V64.75H78.004C79.1067 64.75 80 63.9932 80 62.8905Z" fill="#C3CEE0"/>
<path d="M42.7458 73.75H64.5573C65.1129 73.7467 65.6624 73.6336 66.1742 73.4173C66.6861 73.2009 67.1501 72.8856 67.5397 72.4894C67.9293 72.0932 68.2368 71.624 68.4445 71.1086C68.6522 70.5932 68.756 70.0419 68.75 69.4863V44.25H38.5V69.4863C38.4999 70.614 38.9466 71.6959 39.7423 72.495C40.5381 73.2941 41.618 73.7454 42.7458 73.75Z" fill="#C3CEE0"/>
<path d="M74.5 6.43304L32.7278 22H74.5V6.43304Z" fill="#C3CEE0"/>
<path d="M24.75 94.615V121.5H103V25.5H24.75V94.615ZM35 42.5173C34.9985 42.0517 35.1813 41.6045 35.5085 41.2733C35.8357 40.9422 36.2807 40.754 36.7463 40.75H70.557C70.7847 40.7531 71.0096 40.8015 71.2184 40.8923C71.4273 40.9832 71.616 41.1147 71.7735 41.2791C71.9311 41.4436 72.0544 41.6378 72.1362 41.8503C72.218 42.0629 72.2567 42.2896 72.25 42.5173V48H78.004C79.4691 48.018 80.868 48.6132 81.8969 49.6563C82.9259 50.6994 83.502 52.1063 83.5 53.5715V62.8905C83.5 65.9232 81.0365 68.25 78.004 68.25H72.25V69.4863C72.2555 70.5014 72.0608 71.5076 71.677 72.4474C71.2932 73.3872 70.7279 74.2421 70.0134 74.9632C69.2989 75.6843 68.4492 76.2574 67.513 76.6498C66.5768 77.0422 65.5724 77.2462 64.5573 77.25H42.7458C40.6901 77.2443 38.7205 76.4239 37.2686 74.9687C35.8167 73.5134 35.0009 71.5419 35 69.4863V42.5173ZM36.002 87.75H69.677C70.1411 87.75 70.5862 87.9344 70.9144 88.2626C71.2426 88.5908 71.427 89.0359 71.427 89.5C71.427 89.9641 71.2426 90.4092 70.9144 90.7374C70.5862 91.0656 70.1411 91.25 69.677 91.25H36.002C35.5379 91.25 35.0928 91.0656 34.7646 90.7374C34.4364 90.4092 34.252 89.9641 34.252 89.5C34.252 89.0359 34.4364 88.5908 34.7646 88.2626C35.0928 87.9344 35.5379 87.75 36.002 87.75ZM36.002 102.25H92.5703C93.0344 102.25 93.4795 102.434 93.8077 102.763C94.1359 103.091 94.3203 103.536 94.3203 104C94.3203 104.464 94.1359 104.909 93.8077 105.237C93.4795 105.566 93.0344 105.75 92.5703 105.75H36.002C35.5379 105.75 35.0928 105.566 34.7646 105.237C34.4364 104.909 34.252 104.464 34.252 104C34.252 103.536 34.4364 103.091 34.7646 102.763C35.0928 102.434 35.5379 102.25 36.002 102.25Z" fill="#C3CEE0"/>
</svg>
