<svg xmlns="http://www.w3.org/2000/svg">
   <symbol viewBox="0 0 24 24" id="add">
      <path d="M12 4V20" stroke="#22242C" stroke-linecap="round" />
      <path d="M4 12L20 12" stroke="#22242C" stroke-linecap="round" />
   </symbol>
   
   <symbol viewBox="0 0 10 6" id="arrow_down">
      <path fill-rule="evenodd" clip-rule="evenodd"
         d="M0.734835 0.734835C0.881282 0.588388 1.11872 0.588388 1.26517 0.734835L5 4.46967L8.73483 0.734835C8.88128 0.588388 9.11872 0.588388 9.26517 0.734835C9.41161 0.881282 9.41161 1.11872 9.26517 1.26517L5.26517 5.26517C5.11872 5.41161 4.88128 5.41161 4.73483 5.26517L0.734835 1.26517C0.588388 1.11872 0.588388 0.881282 0.734835 0.734835Z" />
   </symbol>
   
   <symbol viewBox="0 0 12 11" fill="none" id="move_down">
      <path
         d="M5.13397 9.5C5.51887 10.1667 6.48113 10.1667 6.86603 9.5L11.1962 2C11.5811 1.33333 11.0999 0.5 10.3301 0.5H1.66987C0.900073 0.5 0.418948 1.33333 0.803848 2L5.13397 9.5Z"
         stroke="white" />
   </symbol>
   
   <symbol viewBox="0 0 12 11" fill="none" id="move_up">
      <path
         d="M5.13397 1.5C5.51887 0.833333 6.48113 0.833333 6.86603 1.5L11.1962 9C11.5811 9.66667 11.0999 10.5 10.3301 10.5H1.66987C0.900073 10.5 0.418948 9.66667 0.803848 9L5.13397 1.5Z"
         stroke="white" />
   </symbol>
   
   
   <symbol viewBox="0 0 24 24" id="dots">
      <circle cx="12" cy="7" r="1" transform="rotate(90 12 7)" />
      <circle cx="12" cy="12" r="1" transform="rotate(90 12 12)" />
      <circle cx="12" cy="17" r="1" transform="rotate(90 12 17)" />
   </symbol>
   
   <symbol viewBox="0 0 24 24" id="edit">
      <path
         d="M18.7674 14.0509C18.5473 14.0509 18.3689 14.2293 18.3689 14.4494V17.9875C18.3681 18.6475 17.8334 19.1823 17.1734 19.1829H5.99241C5.33243 19.1823 4.79774 18.6475 4.79697 17.9875V7.60344C4.79774 6.94361 5.33243 6.40877 5.99241 6.40799H9.53051C9.75061 6.40799 9.92899 6.22961 9.92899 6.00951C9.92899 5.78956 9.75061 5.61102 9.53051 5.61102H5.99241C4.89254 5.61227 4.00125 6.50356 4 7.60344V17.9877C4.00125 19.0875 4.89254 19.9788 5.99241 19.9801H17.1734C18.2733 19.9788 19.1646 19.0875 19.1659 17.9877V14.4494C19.1659 14.2293 18.9875 14.0509 18.7674 14.0509Z" />
      <path
         d="M19.0081 4.58608C18.3078 3.88578 17.1725 3.88578 16.4722 4.58608L9.36297 11.6953C9.31425 11.744 9.27907 11.8044 9.2607 11.8707L8.32582 15.2458C8.28737 15.3842 8.32644 15.5324 8.42793 15.634C8.52958 15.7355 8.67776 15.7746 8.81614 15.7363L12.1913 14.8013C12.2576 14.7829 12.318 14.7477 12.3667 14.699L19.4757 7.58964C20.1749 6.88887 20.1749 5.75444 19.4757 5.05367L19.0081 4.58608ZM10.2312 11.9543L16.0495 6.1358L17.926 8.01225L12.1075 13.8307L10.2312 11.9543ZM9.8564 12.7064L11.3555 14.2057L9.28187 14.7802L9.8564 12.7064ZM18.9122 7.02616L18.4896 7.44877L16.613 5.57217L17.0358 5.14956C17.4248 4.76057 18.0555 4.76057 18.4445 5.14956L18.9122 5.61715C19.3006 6.00661 19.3006 6.63687 18.9122 7.02616Z" />
   </symbol>
   
   <symbol viewBox="0 0 14 16" id="delete">
      <path
         d="M1.20363 4.76329V13.9953C1.20363 14.5409 1.40372 15.0534 1.75325 15.421C2.10117 15.7898 2.58536 15.9991 3.09209 15.9999H10.1816C10.6885 15.9991 11.1727 15.7898 11.5205 15.421C11.87 15.0534 12.0701 14.5409 12.0701 13.9953V4.76329C12.7649 4.57887 13.2152 3.90762 13.1222 3.19465C13.0291 2.48183 12.4218 1.94861 11.7029 1.94846H9.7844V1.48008C9.7866 1.0862 9.63086 0.707978 9.35202 0.429729C9.07319 0.151627 8.69438 -0.00323193 8.3005 -1.18018e-05H4.97323C4.57935 -0.00323193 4.20055 0.151627 3.92171 0.429729C3.64288 0.707978 3.48714 1.0862 3.48934 1.48008V1.94846H1.57087C0.851905 1.94861 0.244617 2.48183 0.151526 3.19465C0.0585816 3.90762 0.508814 4.57887 1.20363 4.76329ZM10.1816 15.2505H3.09209C2.45143 15.2505 1.95304 14.7002 1.95304 13.9953V4.79623H11.3207V13.9953C11.3207 14.7002 10.8223 15.2505 10.1816 15.2505ZM4.23875 1.48008C4.23626 1.28497 4.31296 1.09717 4.45142 0.959441C4.58974 0.821707 4.77798 0.746034 4.97323 0.7494H8.3005C8.49576 0.746034 8.68399 0.821707 8.82231 0.959441C8.96078 1.09703 9.03748 1.28497 9.03499 1.48008V1.94846H4.23875V1.48008ZM1.57087 2.69787H11.7029C12.0754 2.69787 12.3773 2.99983 12.3773 3.37234C12.3773 3.74485 12.0754 4.04681 11.7029 4.04681H1.57087C1.19836 4.04681 0.896401 3.74485 0.896401 3.37234C0.896401 2.99983 1.19836 2.69787 1.57087 2.69787Z" />
   </symbol>
   
   <symbol viewBox="0 0 128 128" id="empty_menu">
      <path
         d="M80 62.8905V53.5715C80.0029 53.0342 79.7959 52.5169 79.4231 52.13C79.0503 51.7431 78.5411 51.517 78.004 51.5H72.25V64.75H78.004C79.1067 64.75 80 63.9932 80 62.8905Z" />
      <path
         d="M42.7458 73.75H64.5573C65.1129 73.7467 65.6624 73.6336 66.1742 73.4173C66.6861 73.2009 67.1501 72.8856 67.5397 72.4894C67.9293 72.0932 68.2368 71.624 68.4445 71.1086C68.6522 70.5932 68.756 70.0419 68.75 69.4863V44.25H38.5V69.4863C38.4999 70.614 38.9466 71.6959 39.7423 72.495C40.5381 73.2941 41.618 73.7454 42.7458 73.75Z" />
      <path d="M74.5 6.43304L32.7278 22H74.5V6.43304Z" />
      <path
         d="M24.75 94.615V121.5H103V25.5H24.75V94.615ZM35 42.5173C34.9985 42.0517 35.1813 41.6045 35.5085 41.2733C35.8357 40.9422 36.2807 40.754 36.7463 40.75H70.557C70.7847 40.7531 71.0096 40.8015 71.2184 40.8923C71.4273 40.9832 71.616 41.1147 71.7735 41.2791C71.9311 41.4436 72.0544 41.6378 72.1362 41.8503C72.218 42.0629 72.2567 42.2896 72.25 42.5173V48H78.004C79.4691 48.018 80.868 48.6132 81.8969 49.6563C82.9259 50.6994 83.502 52.1063 83.5 53.5715V62.8905C83.5 65.9232 81.0365 68.25 78.004 68.25H72.25V69.4863C72.2555 70.5014 72.0608 71.5076 71.677 72.4474C71.2932 73.3872 70.7279 74.2421 70.0134 74.9632C69.2989 75.6843 68.4492 76.2574 67.513 76.6498C66.5768 77.0422 65.5724 77.2462 64.5573 77.25H42.7458C40.6901 77.2443 38.7205 76.4239 37.2686 74.9687C35.8167 73.5134 35.0009 71.5419 35 69.4863V42.5173ZM36.002 87.75H69.677C70.1411 87.75 70.5862 87.9344 70.9144 88.2626C71.2426 88.5908 71.427 89.0359 71.427 89.5C71.427 89.9641 71.2426 90.4092 70.9144 90.7374C70.5862 91.0656 70.1411 91.25 69.677 91.25H36.002C35.5379 91.25 35.0928 91.0656 34.7646 90.7374C34.4364 90.4092 34.252 89.9641 34.252 89.5C34.252 89.0359 34.4364 88.5908 34.7646 88.2626C35.0928 87.9344 35.5379 87.75 36.002 87.75ZM36.002 102.25H92.5703C93.0344 102.25 93.4795 102.434 93.8077 102.763C94.1359 103.091 94.3203 103.536 94.3203 104C94.3203 104.464 94.1359 104.909 93.8077 105.237C93.4795 105.566 93.0344 105.75 92.5703 105.75H36.002C35.5379 105.75 35.0928 105.566 34.7646 105.237C34.4364 104.909 34.252 104.464 34.252 104C34.252 103.536 34.4364 103.091 34.7646 102.763C35.0928 102.434 35.5379 102.25 36.002 102.25Z" />
   </symbol>
   
</svg>
